<?xml version="1.0" encoding="UTF-8" standalone="no"?>
<!-- Generator: Adobe Illustrator 23.1.1, SVG Export Plug-In . SVG Version: 6.00 Build 0)  -->

<svg
   xmlns:dc="http://purl.org/dc/elements/1.1/"
   xmlns:cc="http://creativecommons.org/ns#"
   xmlns:rdf="http://www.w3.org/1999/02/22-rdf-syntax-ns#"
   xmlns:svg="http://www.w3.org/2000/svg"
   xmlns="http://www.w3.org/2000/svg"
   xmlns:sodipodi="http://sodipodi.sourceforge.net/DTD/sodipodi-0.dtd"
   xmlns:inkscape="http://www.inkscape.org/namespaces/inkscape"
   version="1.1"
   id="Layer_1"
   x="0px"
   y="0px"
   viewBox="0 0 1920 347.1"
   style="enable-background:new 0 0 1920 347.1;"
   xml:space="preserve"
   sodipodi:docname="chartipedia_logo_light.svg"
   inkscape:version="0.92.3 (2405546, 2018-03-11)"><metadata
   id="metadata19"><rdf:RDF><cc:Work
       rdf:about=""><dc:format>image/svg+xml</dc:format><dc:type
         rdf:resource="http://purl.org/dc/dcmitype/StillImage" /><dc:title></dc:title></cc:Work></rdf:RDF></metadata><defs
   id="defs17" /><sodipodi:namedview
   pagecolor="#ffffff"
   bordercolor="#666666"
   borderopacity="1"
   objecttolerance="10"
   gridtolerance="10"
   guidetolerance="10"
   inkscape:pageopacity="0"
   inkscape:pageshadow="2"
   inkscape:window-width="1920"
   inkscape:window-height="1137"
   id="namedview15"
   showgrid="false"
   inkscape:pagecheckerboard="true"
   inkscape:zoom="0.29895833"
   inkscape:cx="97.462936"
   inkscape:cy="597.7196"
   inkscape:window-x="-8"
   inkscape:window-y="-8"
   inkscape:window-maximized="1"
   inkscape:current-layer="g8" />
<style
   type="text/css"
   id="style2">
	.st0{fill:#FFFFFF;}
</style>
<g
   id="g12">
	<g
   id="g8">
		<path
   d="M1749,185.3c0-41,30.8-73.9,73.2-73.9c32.5,0,57.1,18.8,67.4,44.1c4.1,8.9,6.2,19.1,5.8,29.4c0,9.9-2.1,20.2-6.2,29.1    c-9.9,26-33.8,44.8-66.3,44.8c-50.6,0-73.5-40-73.9-73.2V185.3z M1920,93.3h-25.3V132c-8.9-20.9-35.9-43.8-75.2-43.8    c-56.1,0-95.4,43.1-95.4,97.1c0,50.6,35.6,97.1,95.4,97.1c32.8,0,60.9-15.4,75.2-43.1v38h25.3V93.3z M1660.8,277.3h25.3v-184    h-25.3V277.3z M1440.6,185c0-41.4,31.1-73.5,73.5-73.5c20.5,0,39,7.9,52,21.2c13.3,13,21.2,30.8,21.2,51.6    c0.7,20.5-7.2,39.3-20.5,53c-13,13.3-31.8,21.5-52.3,21.5c-47.9,0-73.5-36.6-73.9-73.5V185z M1610.9,24.3h-25.3v67.4v39    c-8.2-19.1-34.9-42.4-75.2-42.4c-55.1,0-94.7,42.1-94.7,96.8c0,51.6,36.2,97.5,95.1,97.5c38.3,0,62.9-18.8,75.9-43.1v38h24.3V24.3    z M1223.8,172.3c2.4-33.5,31.8-62.6,71.5-62.6c38-1,69.1,30.4,70.8,62.6H1223.8z M1391,192.5c2.7-29.4-7.5-57.8-28.7-78.3    c-17.4-16.8-41.4-26-67.4-26c-55.1,0-96.8,43.4-96.8,97.5c0,45.8,33.2,96.8,97.1,96.8c18.8,0,36.9-5.1,52.3-15    c15.7-9.9,28.7-25,37.3-44.8h-26.3c-12,23.9-34.9,38-63.3,38c-31.1,0.3-70.4-21.9-71.8-68.1H1391z M1148.2,185.3    c0,42.1-31.8,73.5-73.2,73.5c-20.5,0-39-7.9-52-20.9c-13.3-13.3-21.2-31.8-21.2-52.3c0-20.9,7.9-39.3,20.5-52.7    c13.3-13.3,31.5-21.5,52-21.5c49.6,0,73.9,39,73.9,73.5V185.3z M978.3,347.1h25.3v-69.8v-37.6c8.5,19.1,34.9,42.7,75.6,42.7    c57.1,0,94.4-45.1,94.4-96.4c0-47.5-32.5-97.8-94.4-97.8c-35.2,0-61.9,16.7-76.9,43.4V93.3h-23.9V347.1z M903.8,277.3h25.3v-184    h-25.3V277.3z M810.7,277.3h25V113.5h40.4V93.3h-40.4V24.3h-25v69.1h-36.2v20.2h36.2V277.3z M677,277.3h25V177.1    c0-41.7,19.8-63.9,55.4-63.9h2.4v-25c-21.5,0.7-45.5,7.9-58.8,35.2V93.3H677V277.3z M456.8,185.3c0-41,30.8-73.9,73.2-73.9    c32.5,0,57.1,18.8,67.4,44.1c4.1,8.9,6.2,19.1,5.8,29.4c0,9.9-2.1,20.2-6.2,29.1c-9.9,26-33.8,44.8-66.3,44.8    c-50.6,0-73.5-40-73.9-73.2V185.3z M627.8,93.3h-25.3V132c-8.9-20.9-35.9-43.8-75.2-43.8c-56.1,0-95.4,43.1-95.4,97.1    c0,50.6,35.6,97.1,95.4,97.1c32.8,0,60.9-15.4,75.2-43.1v38h25.3V93.3z M225.3,277.3h25.3V172.7c0-16.8,4.8-31.8,14.7-42.7    c9.6-10.9,24.6-18.1,44.8-18.1c21.9,0,36.3,6.8,46.2,18.8c9.2,12,13.3,28.7,13.3,48.6v98.1h25v-99.2c0-26.3-4.8-48.6-17.4-64.6    c-12.7-16.1-31.8-25.3-60.9-25.3c-26-0.7-54.4,10.9-65.7,35.2V91.6V24.3h-25.3V277.3z M164.5,215.1c-7.9,22.2-31.5,43.4-66.7,43.8    c-39.7,0-72.5-30.1-72.5-73.5c0-21.2,8.5-41,20.9-53c15.4-14.4,30.4-20.9,52-20.9c26,0,55.1,14.4,66.7,45.5h26    c-12.6-44.1-52.3-68.7-93.7-68.7C41.4,88.2,0,130.9,0,185.3c0,49.2,36.6,97.1,98.8,97.1c44.1,0,80-28.4,92-67.4H164.5z"
   id="path4"
   style="fill:#ffffff" />
		<path
   class="st0"
   d="M917.8,74.5c20.6,0,37.2-16.7,37.2-37.2S938.3,0,917.8,0s-37.2,16.7-37.2,37.2S897.2,74.5,917.8,74.5"
   id="path6"
   style="fill:#eeea39;fill-opacity:1" />
	</g>
	<polygon
   class="st0"
   points="1675.8,0 1638.6,74.5 1713,74.5  "
   id="polygon10"
   style="fill:#eeea39;fill-opacity:1" />
</g>
</svg>