<svg xmlns="http://www.w3.org/2000/svg" viewBox="0 0 277.181 104.8332"><g id="Lager_2" data-name="Lager 2"><g id="Lager_1-2" data-name="Lager 1"><path d="M89.5224,42.67,78.1892,29.4686V42.67H70.9655V.0061h7.2237v22.863l8.3445-9.2784h9.4026L84.1051,26.293,98.6767,42.67Z" style="fill:#fff"/><path d="M121.6264,14.5281l-4.0451,5.7294a4.8376,4.8376,0,0,0-2.6923-.5032c-4.733,0-7.3485,4.6075-7.3485,12.7658V42.67h-7.2857v-29.08h7.2236v6.227c1.5568-4.8585,4.7324-6.85,8.3445-6.85A11.8429,11.8429,0,0,1,121.6264,14.5281Z" style="fill:#fff"/><path d="M182.0951,13.5907V42.67h-7.223V38.7471c-1.9933,3.1135-6.1028,4.5467-9.6523,4.5467-7.6589,0-14.3218-5.9166-14.3218-15.195,0-9.3405,6.6008-15.1316,14.26-15.1316,3.6736,0,7.7211,1.4319,9.7144,4.4833v-3.86Zm-7.3472,14.446a8.3481,8.3481,0,0,0-8.4066-8.3445,8.1122,8.1122,0,0,0-8.1582,8.3445,8.2193,8.2193,0,0,0,8.1582,8.4687A8.3045,8.3045,0,0,0,174.7479,28.0367Z" style="fill:#fff"/><path d="M203.5939,19.3818H197.429V42.67h-7.223V19.3818h-5.231V13.5907h5.231V2.879h7.223V13.5907h6.1649Z" style="fill:#fff"/><path d="M207.067,13.5907H214.29V42.67H207.067Z" style="fill:#fff"/><path d="M247.6141,13.5907,235.3464,42.67h-6.6l-12.1436-29.08h7.7845l7.721,19.9254,7.6589-19.9254Z" style="fill:#fff"/><path d="M277.181,13.5907V42.67h-7.223V38.7471c-1.9933,3.1135-6.1028,4.5467-9.6523,4.5467-7.6589,0-14.3218-5.9166-14.3218-15.195,0-9.3405,6.6008-15.1316,14.26-15.1316,3.6736,0,7.721,1.4319,9.7143,4.4833v-3.86Zm-7.3472,14.446a8.3481,8.3481,0,0,0-8.4066-8.3445,8.1122,8.1122,0,0,0-8.1582,8.3445,8.2193,8.2193,0,0,0,8.1582,8.4687A8.3045,8.3045,0,0,0,269.8338,28.0367Z" style="fill:#fff"/><path d="M102.15,76.064c0,9.2784-6.6629,15.1937-14.3218,15.1937-3.4874,0-7.659-1.4319-9.6523-4.5454v3.9232h-7.223V47.9713h7.223V65.4157c1.9933-3.0514,6.0408-4.4833,9.7144-4.4833C95.55,60.9324,102.15,66.7235,102.15,76.064Zm-7.223-.0621a8.1628,8.1628,0,0,0-8.22-8.3445,8.4087,8.4087,0,1,0,8.22,8.3445Z" style="fill:#fff"/><path d="M130.9933,61.5546l-18.0588,43.2786h-7.5969l6.5375-16.191L100.2929,61.5546h7.9086l7.5347,18.4326,7.4727-18.4326Z" style="fill:#fff"/><path d="M182.0248,61.5546V90.6355h-7.223V86.7123c-1.9934,3.1135-6.1029,4.5454-9.6523,4.5454-7.6589,0-14.3219-5.9153-14.3219-15.1937,0-9.34,6.6009-15.1316,14.26-15.1316,3.6736,0,7.721,1.4319,9.7144,4.4833V61.5546Zm-7.3472,14.4473a8.3481,8.3481,0,0,0-8.4066-8.3445,8.1122,8.1122,0,0,0-8.1583,8.3445,8.2193,8.2193,0,0,0,8.1583,8.4687A8.3054,8.3054,0,0,0,174.6776,76.0019Z" style="fill:#fff"/><path d="M214.2813,74.32V90.6355h-7.2244v-15.63c0-4.6088-2.8017-6.9747-6.0394-6.9747-3.3011,0-7.4106,1.8058-7.4106,7.4106V90.6355h-7.223V61.5546h7.223v4.6088c1.494-3.6115,6.0407-5.231,9.0288-5.231C210.1083,60.9324,214.2813,65.8516,214.2813,74.32Z" style="fill:#fff"/><rect width="56.6929" height="90.7087" style="fill:#fff"/><path d="M166.46,50.6424a2.4095,2.4095,0,1,1-2.41,2.41,2.4121,2.4121,0,0,1,2.41-2.41m0-2.5512a4.9607,4.9607,0,1,0,4.9606,4.9607,4.9606,4.9606,0,0,0-4.9606-4.9607Z" style="fill:#fff"/><circle cx="210.7178" cy="5.237" r="4.252" style="fill:#fff"/><path d="M154.1477,62.5152l-4.0451,5.7294a4.8375,4.8375,0,0,0-2.6922-.5033c-4.733,0-7.3485,4.6076-7.3485,12.7658v10.15h-7.2858v-29.08H140v6.2271c1.5567-4.8585,4.7323-6.8506,8.3445-6.8506A11.8429,11.8429,0,0,1,154.1477,62.5152Z" style="fill:#fff"/><path d="M148.0769,25.615l-21.2431,7.3543c2.0893,3.56,5.545,4.7174,9.587,3.2588,2.8346-1.0229,4.42-2.6263,5.0919-5.2815l6.9338-2.3875c.3079,7.1652-5.06,12.0576-10.0623,13.7892-8.2386,2.8522-16.4728-.7554-19.4473-9.3472-3.0354-8.7679,1.6407-16.5807,9.4673-19.29,7.8841-2.73,15.9576.6038,18.9317,9.1944A24.42,24.42,0,0,1,148.0769,25.615Zm-8.2995-2.4639c-1.7162-3.6246-5.3534-4.8034-9.1781-3.4792-3.7073,1.2834-6.0385,4.0671-5.4155,8.5315Z" style="fill:#fff"/></g></g></svg>